<?xml version="1.0" encoding="utf-8"?>
<!-- Generator: Adobe Illustrator 22.0.0, SVG Export Plug-In . SVG Version: 6.00 Build 0)  -->
<svg version="1.1"
	 id="图层_1" xmlns:cc="http://creativecommons.org/ns#" xmlns:dc="http://purl.org/dc/elements/1.1/" xmlns:rdf="http://www.w3.org/1999/02/22-rdf-syntax-ns#"
	 xmlns="http://www.w3.org/2000/svg" xmlns:xlink="http://www.w3.org/1999/xlink" x="0px" y="0px" viewBox="0 0 6000 6000"
	 style="enable-background:new 0 0 6000 6000;" xml:space="preserve">
<style type="text/css">
	.st0{fill:#FFFFFF;}
</style>
<g>
	<path d="M3013.7,5579.9c-1418.9,0-2568.4-1150.5-2568-2570.2c0.4-1418.4,1151.4-2566.7,2572.1-2566
		c1417.8,0.6,2565.3,1152.6,2564.1,2574C5580.8,4431.3,4429.5,5579.9,3013.7,5579.9z M4236.4,1716.3c0,10.6,0,19.8,0,28.9
		c0,167.3-0.2,334.6,0.4,501.9c0.1,17.5-4.2,28.1-20.9,35.7c-42.6,19.4-83.9,41.8-126.8,60.8c-251,111.4-513.6,182.6-785.4,218.4
		c-96.3,12.7-193.7,23.9-290.5,23.2c-170.9-1.3-339.9-26.3-507-62.5c-235.1-50.8-461.7-125.8-676.3-235.7
		c-20.3-10.4-29.2-22-29-46.5c1.3-165.6,0.7-331.2,0.7-496.7c0-8.9,0-17.7,0-26.5c-5.6,0-7.4-0.5-8.8,0.1
		c-154.8,55.3-304.5,120.9-434,224.4c-34.4,27.5-66.8,58.9-94.9,92.8c-132.7,160.3-110.3,373.1,51.9,504.3
		c129.2,104.4,277.9,171.8,433.7,224.7c304.2,103.1,619.3,148.7,938,173.9c43.8,3.5,87.7,6.2,132.9,9.3c0,13.9,0,24.1,0,34.2
		c0,336.3,0.2,672.6-0.5,1008.9c0,21.4,6.2,36.4,20.9,51.6c54.8,56.2,108.4,113.7,162,171c6.3,6.8,10.4,15.6,16.1,24.5
		c66.8-70.4,127.6-135.1,189.2-198.9c12.8-13.3,18.1-26.5,18.1-45.1c-0.5-338-0.4-676-0.4-1014c0-10.1,0-20.3,0-31.9
		c9.2-1.3,16.6-2.6,24-3.3c144.3-14.1,289-24.4,432.7-42.9c222.8-28.6,441.7-76.3,653.1-154c144.8-53.2,284.5-117.7,400.9-221.1
		c106-94.2,174.9-268.6,79.5-431.9c-36.8-63-86.5-114.1-143.6-158.2c-127.7-98.7-273.3-162.8-423.7-217.4
		C4245.8,1717.2,4242.4,1717.2,4236.4,1716.3z M1988.8,2033.4c591.1,268.2,1547.2,242.4,2058.1-0.4c-0.1-2.3,0.1-4.8-0.4-7.2
		c-26.3-116.4-54-232.4-78.8-349.1c-34.1-160.7-105.6-303.3-202.9-434.3c-74.1-99.7-160-134.9-279-103.8
		c-116.9,30.6-233.2,64.6-348.2,101.8c-79.4,25.7-155.2,26.7-234.8,0.9c-115-37.3-231.1-71.6-348.1-101.8
		c-123.4-31.9-207.5,2.7-283,104.9c-95.4,129.2-166.4,269-199.9,427.4C2046.4,1792.4,2016.8,1912.3,1988.8,2033.4z M2897.3,5141.2
		c0.8-8.6,1.4-11.8,1.4-15.1c0.1-169,0.3-337.9-0.6-506.9c-0.1-10.7-7.7-24-15.9-31.8c-120.1-113.9-240.8-227.2-361.9-340.1
		c-13-12.1-17.9-24.4-17.9-42.1c0.6-184.3,0.1-368.7,0.8-553c0.1-20.5-5.6-34.6-20.7-48.7c-263.6-246.6-526.6-493.8-789.8-740.8
		c-6.4-6-13.1-11.6-21.6-19c-1,6.8-1.7,9.2-1.7,11.6c1.8,171.5,3.3,343,6.1,514.5c0.2,9.9,8.1,21.9,15.9,29.2
		c130.2,123.1,260.8,245.8,391.9,368c12.3,11.5,17.2,22.9,17.2,39.7c-0.5,187.7-0.6,375.5,0.3,563.2c0.1,12.5,6.4,28.5,15.4,37
		c187.2,177.1,375.3,353.3,563.2,529.7C2750.7,5003.9,2822.3,5070.9,2897.3,5141.2z M4368.6,2842.9c-10,8.4-16.4,13.4-22.3,19
		c-263.8,247.6-527.5,495.4-791.6,742.7c-13.5,12.7-19.5,25.2-19.4,44.1c0.7,185.2,0.1,370.4,0.9,555.5c0.1,18.8-5.7,31.5-19.3,44.1
		c-120.5,112.3-240.2,225.4-360.7,337.7c-12.2,11.4-17.4,22.8-17.3,39.7c0.6,162.1,0.4,324.3,0.4,486.4c0,8.1,0,16.2,0,29.2
		c10.2-8.9,16.5-14.1,22.5-19.7c253.9-238.2,507.9-476.4,761.2-715.2c8.5-8,14.4-23.1,14.4-34.9c0.9-188.6,0.3-377.2,1.3-565.8
		c0.1-12.4,6.9-28.2,16-36.8c129.9-123.4,261-245.6,391-369c9.1-8.7,16.7-24,17-36.3c2.9-161.2,4.3-322.5,6.1-483.8
		C4368.7,2869,4368.6,2858.3,4368.6,2842.9z"/>
	<path class="st0" d="M4236.4,1716.3c6,0.9,9.4,0.9,12.4,2c150.4,54.6,296,118.7,423.7,217.4c57.1,44.1,106.8,95.3,143.6,158.2
		c95.4,163.3,26.4,337.7-79.5,431.9c-116.4,103.5-256.1,167.9-400.9,221.1c-211.4,77.7-430.4,125.4-653.1,154
		c-143.7,18.5-288.5,28.8-432.7,42.9c-7.5,0.7-14.9,2-24,3.3c0,11.6,0,21.8,0,31.9c0,338-0.1,676,0.4,1014
		c0,18.6-5.3,31.8-18.1,45.1c-61.7,63.8-122.4,128.5-189.2,198.9c-5.7-8.9-9.8-17.8-16.1-24.5c-53.7-57.3-107.2-114.8-162-171
		c-14.8-15.2-21-30.2-20.9-51.6c0.7-336.3,0.5-672.6,0.5-1008.9c0-10.2,0-20.3,0-34.2c-45.2-3.1-89.1-5.8-132.9-9.3
		c-318.7-25.3-633.8-70.8-938-173.9c-155.8-52.8-304.6-120.2-433.7-224.7c-162.3-131.2-184.6-343.9-51.9-504.3
		c28.1-33.9,60.4-65.3,94.9-92.8c129.5-103.5,279.2-169.2,434-224.4c1.5-0.5,3.3-0.1,8.8-0.1c0,8.8,0,17.7,0,26.5
		c0,165.6,0.6,331.2-0.7,496.7c-0.2,24.5,8.7,36.1,29,46.5c214.6,109.8,441.2,184.9,676.3,235.7c167.1,36.1,336.2,61.1,507,62.5
		c96.8,0.8,194.2-10.5,290.5-23.2c271.9-35.8,534.4-107,785.4-218.4c42.8-19,84.1-41.3,126.8-60.8c16.7-7.6,21-18.3,20.9-35.7
		c-0.6-167.3-0.4-334.6-0.4-501.9C4236.4,1736,4236.4,1726.9,4236.4,1716.3z"/>
	<path class="st0" d="M1988.8,2033.4c28-121.1,57.6-241,83.1-361.7c33.5-158.3,104.5-298.2,199.9-427.4
		c75.5-102.3,159.6-136.9,283-104.9c117,30.3,233.2,64.6,348.1,101.8c79.6,25.8,155.4,24.9,234.8-0.9
		c115-37.3,231.2-71.2,348.2-101.8c119-31.1,204.9,4.1,279,103.8c97.3,131.1,168.8,273.6,202.9,434.3
		c24.7,116.7,52.4,232.8,78.8,349.1c0.5,2.4,0.3,4.9,0.4,7.2C3536.1,2275.8,2579.9,2301.6,1988.8,2033.4z"/>
	<path class="st0" d="M2897.3,5141.2c-75-70.3-146.6-137.3-218-204.4c-187.9-176.4-375.9-352.6-563.2-529.7
		c-9-8.5-15.3-24.5-15.4-37c-1-187.7-0.9-375.5-0.3-563.2c0-16.8-4.9-28.2-17.2-39.7c-131-122.2-261.7-244.9-391.9-368
		c-7.8-7.3-15.7-19.3-15.9-29.2c-2.8-171.5-4.3-343-6.1-514.5c0-2.4,0.7-4.8,1.7-11.6c8.4,7.4,15.2,13,21.6,19
		c263.2,247,526.2,494.2,789.8,740.8c15.1,14.1,20.8,28.2,20.7,48.7c-0.8,184.3-0.2,368.7-0.8,553c-0.1,17.7,4.9,30,17.9,42.1
		c121.1,112.9,241.8,226.2,361.9,340.1c8.2,7.8,15.8,21,15.9,31.8c1,169,0.7,337.9,0.6,506.9
		C2898.7,5129.4,2898.1,5132.6,2897.3,5141.2z"/>
	<path class="st0" d="M4368.6,2842.9c0,15.4,0.1,26.1,0,36.8c-1.8,161.3-3.2,322.5-6.1,483.8c-0.2,12.4-7.8,27.6-17,36.3
		c-130,123.4-261,245.6-391,369c-9,8.6-15.9,24.3-16,36.8c-1,188.6-0.4,377.2-1.3,565.8c-0.1,11.8-6,26.9-14.4,34.9
		c-253.3,238.9-507.3,477-761.2,715.2c-6,5.6-12.3,10.8-22.5,19.7c0-12.9,0-21,0-29.2c0-162.1,0.2-324.3-0.4-486.4
		c-0.1-16.9,5.1-28.3,17.3-39.7c120.4-112.3,240.2-225.4,360.7-337.7c13.6-12.6,19.4-25.3,19.3-44.1c-0.7-185.2-0.1-370.4-0.9-555.5
		c-0.1-18.9,5.9-31.4,19.4-44.1c264.1-247.3,527.8-495,791.6-742.7C4352.1,2856.3,4358.6,2851.4,4368.6,2842.9z"/>
</g>
</svg>
