<?xml version="1.0" encoding="utf-8"?>
<!-- Generator: Adobe Illustrator 22.0.0, SVG Export Plug-In . SVG Version: 6.00 Build 0)  -->
<svg version="1.1"
	 id="Liberty-Logo" xmlns:cc="http://creativecommons.org/ns#" xmlns:dc="http://purl.org/dc/elements/1.1/" xmlns:rdf="http://www.w3.org/1999/02/22-rdf-syntax-ns#" xmlns:svg="http://www.w3.org/2000/svg"
	 xmlns="http://www.w3.org/2000/svg" xmlns:xlink="http://www.w3.org/1999/xlink" x="0px" y="0px" viewBox="0 0 282 75"
	 style="enable-background:new 0 0 282 75;" xml:space="preserve">
<style type="text/css">
	.st0{fill:#3D3D3D;}
	.st1{font-family:'MicrosoftYaHei';}
	.st2{font-size:39px;}
	.st3{fill:#FFFFFF;}
</style>
<text transform="matrix(1.3333 0 0 1 84.105 54.02)" class="st0 st1 st2">LIBERTY</text>
<g>
	<path d="M37.2,74.8c-20.5,0-37.1-16.6-37.1-37.1c0-20.5,16.6-37.1,37.2-37.1c20.5,0,37.1,16.6,37,37.2
		C74.3,58.2,57.7,74.8,37.2,74.8z M54.9,18.9c0,0.2,0,0.3,0,0.4c0,2.4,0,4.8,0,7.2c0,0.3-0.1,0.4-0.3,0.5c-0.6,0.3-1.2,0.6-1.8,0.9
		c-3.6,1.6-7.4,2.6-11.3,3.2c-1.4,0.2-2.8,0.3-4.2,0.3c-2.5,0-4.9-0.4-7.3-0.9c-3.4-0.7-6.7-1.8-9.8-3.4c-0.3-0.2-0.4-0.3-0.4-0.7
		c0-2.4,0-4.8,0-7.2c0-0.1,0-0.3,0-0.4c-0.1,0-0.1,0-0.1,0c-2.2,0.8-4.4,1.7-6.3,3.2c-0.5,0.4-1,0.9-1.4,1.3
		c-1.9,2.3-1.6,5.4,0.7,7.3c1.9,1.5,4,2.5,6.3,3.2c4.4,1.5,8.9,2.1,13.5,2.5c0.6,0.1,1.3,0.1,1.9,0.1c0,0.2,0,0.3,0,0.5
		c0,4.9,0,9.7,0,14.6c0,0.3,0.1,0.5,0.3,0.7c0.8,0.8,1.6,1.6,2.3,2.5c0.1,0.1,0.1,0.2,0.2,0.4c1-1,1.8-2,2.7-2.9
		c0.2-0.2,0.3-0.4,0.3-0.7c0-4.9,0-9.8,0-14.6c0-0.1,0-0.3,0-0.5c0.1,0,0.2,0,0.3,0c2.1-0.2,4.2-0.4,6.3-0.6
		c3.2-0.4,6.4-1.1,9.4-2.2c2.1-0.8,4.1-1.7,5.8-3.2c1.5-1.4,2.5-3.9,1.1-6.2c-0.5-0.9-1.2-1.6-2.1-2.3c-1.8-1.4-3.9-2.4-6.1-3.1
		C55,19,55,19,54.9,18.9z M22.4,23.5c8.5,3.9,22.4,3.5,29.7,0c0,0,0-0.1,0-0.1c-0.4-1.7-0.8-3.4-1.1-5c-0.5-2.3-1.5-4.4-2.9-6.3
		c-1.1-1.4-2.3-1.9-4-1.5c-1.7,0.4-3.4,0.9-5,1.5c-1.1,0.4-2.2,0.4-3.4,0c-1.7-0.5-3.3-1-5-1.5c-1.8-0.5-3,0-4.1,1.5
		c-1.4,1.9-2.4,3.9-2.9,6.2C23.3,20,22.8,21.8,22.4,23.5z M35.6,68.4c0-0.1,0-0.2,0-0.2c0-2.4,0-4.9,0-7.3c0-0.2-0.1-0.3-0.2-0.5
		c-1.7-1.6-3.5-3.3-5.2-4.9c-0.2-0.2-0.3-0.4-0.3-0.6c0-2.7,0-5.3,0-8c0-0.3-0.1-0.5-0.3-0.7c-3.8-3.6-7.6-7.1-11.4-10.7
		c-0.1-0.1-0.2-0.2-0.3-0.3c0,0.1,0,0.1,0,0.2c0,2.5,0,5,0.1,7.4c0,0.1,0.1,0.3,0.2,0.4c1.9,1.8,3.8,3.6,5.7,5.3
		c0.2,0.2,0.2,0.3,0.2,0.6c0,2.7,0,5.4,0,8.1c0,0.2,0.1,0.4,0.2,0.5c2.7,2.6,5.4,5.1,8.1,7.7C33.4,66.4,34.5,67.4,35.6,68.4z
		 M56.8,35.2c-0.1,0.1-0.2,0.2-0.3,0.3c-3.8,3.6-7.6,7.2-11.4,10.7c-0.2,0.2-0.3,0.4-0.3,0.6c0,2.7,0,5.4,0,8c0,0.3-0.1,0.5-0.3,0.6
		c-1.7,1.6-3.5,3.3-5.2,4.9C39.1,60.6,39,60.7,39,61c0,2.3,0,4.7,0,7c0,0.1,0,0.2,0,0.4c0.1-0.1,0.2-0.2,0.3-0.3
		c3.7-3.4,7.3-6.9,11-10.3c0.1-0.1,0.2-0.3,0.2-0.5c0-2.7,0-5.4,0-8.2c0-0.2,0.1-0.4,0.2-0.5c1.9-1.8,3.8-3.5,5.6-5.3
		c0.1-0.1,0.2-0.3,0.2-0.5c0-2.3,0.1-4.7,0.1-7C56.8,35.6,56.8,35.4,56.8,35.2z"/>
	<path class="st3" d="M54.9,18.9c0.1,0,0.1,0,0.2,0c2.2,0.8,4.3,1.7,6.1,3.1c0.8,0.6,1.5,1.4,2.1,2.3c1.4,2.4,0.4,4.9-1.1,6.2
		c-1.7,1.5-3.7,2.4-5.8,3.2c-3.1,1.1-6.2,1.8-9.4,2.2c-2.1,0.3-4.2,0.4-6.3,0.6c-0.1,0-0.2,0-0.3,0c0,0.2,0,0.3,0,0.5
		c0,4.9,0,9.8,0,14.6c0,0.3-0.1,0.5-0.3,0.7c-0.9,0.9-1.8,1.9-2.7,2.9c-0.1-0.1-0.1-0.3-0.2-0.4c-0.8-0.8-1.5-1.7-2.3-2.5
		c-0.2-0.2-0.3-0.4-0.3-0.7c0-4.9,0-9.7,0-14.6c0-0.1,0-0.3,0-0.5c-0.7,0-1.3-0.1-1.9-0.1c-4.6-0.4-9.2-1-13.5-2.5
		c-2.3-0.8-4.4-1.7-6.3-3.2c-2.3-1.9-2.7-5-0.7-7.3c0.4-0.5,0.9-0.9,1.4-1.3c1.9-1.5,4-2.4,6.3-3.2c0,0,0,0,0.1,0c0,0.1,0,0.3,0,0.4
		c0,2.4,0,4.8,0,7.2c0,0.4,0.1,0.5,0.4,0.7c3.1,1.6,6.4,2.7,9.8,3.4c2.4,0.5,4.9,0.9,7.3,0.9c1.4,0,2.8-0.2,4.2-0.3
		c3.9-0.5,7.7-1.5,11.3-3.2c0.6-0.3,1.2-0.6,1.8-0.9c0.2-0.1,0.3-0.3,0.3-0.5c0-2.4,0-4.8,0-7.2C54.9,19.2,54.9,19.1,54.9,18.9z"/>
	<path class="st3" d="M22.4,23.5c0.4-1.7,0.8-3.5,1.2-5.2c0.5-2.3,1.5-4.3,2.9-6.2c1.1-1.5,2.3-2,4.1-1.5c1.7,0.4,3.4,0.9,5,1.5
		c1.2,0.4,2.2,0.4,3.4,0c1.7-0.5,3.3-1,5-1.5c1.7-0.4,3,0.1,4,1.5c1.4,1.9,2.4,4,2.9,6.3c0.4,1.7,0.8,3.4,1.1,5c0,0,0,0.1,0,0.1
		C44.8,27,31,27.4,22.4,23.5z"/>
	<path class="st3" d="M35.6,68.4c-1.1-1-2.1-2-3.1-3c-2.7-2.5-5.4-5.1-8.1-7.7c-0.1-0.1-0.2-0.4-0.2-0.5c0-2.7,0-5.4,0-8.1
		c0-0.2-0.1-0.4-0.2-0.6c-1.9-1.8-3.8-3.5-5.7-5.3c-0.1-0.1-0.2-0.3-0.2-0.4c0-2.5-0.1-5-0.1-7.4c0,0,0-0.1,0-0.2
		c0.1,0.1,0.2,0.2,0.3,0.3c3.8,3.6,7.6,7.1,11.4,10.7c0.2,0.2,0.3,0.4,0.3,0.7c0,2.7,0,5.3,0,8c0,0.3,0.1,0.4,0.3,0.6
		c1.7,1.6,3.5,3.3,5.2,4.9c0.1,0.1,0.2,0.3,0.2,0.5c0,2.4,0,4.9,0,7.3C35.6,68.2,35.6,68.3,35.6,68.4z"/>
	<path class="st3" d="M56.8,35.2c0,0.2,0,0.4,0,0.5c0,2.3,0,4.7-0.1,7c0,0.2-0.1,0.4-0.2,0.5c-1.9,1.8-3.8,3.5-5.6,5.3
		c-0.1,0.1-0.2,0.4-0.2,0.5c0,2.7,0,5.4,0,8.2c0,0.2-0.1,0.4-0.2,0.5c-3.7,3.5-7.3,6.9-11,10.3c-0.1,0.1-0.2,0.2-0.3,0.3
		c0-0.2,0-0.3,0-0.4c0-2.3,0-4.7,0-7c0-0.2,0.1-0.4,0.2-0.6c1.7-1.6,3.5-3.3,5.2-4.9c0.2-0.2,0.3-0.4,0.3-0.6c0-2.7,0-5.4,0-8
		c0-0.3,0.1-0.5,0.3-0.6c3.8-3.6,7.6-7.2,11.4-10.7C56.6,35.4,56.7,35.3,56.8,35.2z"/>
</g>
</svg>
